<svg width="32" height="32" viewBox="0 0 32 32" fill="none" xmlns="http://www.w3.org/2000/svg">
<path fill-rule="evenodd" clip-rule="evenodd" d="M2.50495 6.50492C3.25509 5.75477 4.27251 5.33334 5.33337 5.33334H23.5466C23.5466 5.33334 23.5467 5.33334 23.5466 5.33334C24.7353 5.33329 25.89 5.73035 26.8273 6.46147C27.7646 7.19261 28.4307 8.21591 28.72 9.3689L30.1467 15.0626C30.52 16.5528 30.52 18.1126 30.1468 19.6037L29.293 22.9925C29.1437 23.5848 28.6109 24 28 24H26.6194C26.296 26.2615 24.351 28 22 28C19.6491 28 17.7041 26.2615 17.3806 24H13.2861C12.9626 26.2615 11.0177 28 8.66671 28C6.31573 28 4.37079 26.2615 4.0473 24H2.66671C1.93033 24 1.33337 23.4031 1.33337 22.6667V9.33334C1.33337 8.27248 1.7548 7.25506 2.50495 6.50492ZM4.44913 21.3333C5.1981 19.7567 6.80511 18.6667 8.66671 18.6667C10.5283 18.6667 12.1353 19.7567 12.8843 21.3333H17.7825C18.5314 19.7567 20.1384 18.6667 22 18.6667C23.8616 18.6667 25.4686 19.7567 26.2176 21.3333H26.961L27.5599 18.9563C27.5598 18.9567 27.56 18.956 27.5599 18.9563C27.8265 17.8904 27.8266 16.7748 27.56 15.7107L26.1335 10.0178C26.1334 10.0177 26.1335 10.0179 26.1335 10.0178C25.9888 9.44144 25.6557 8.92957 25.1871 8.56407C24.7185 8.19851 24.1411 7.99998 23.5468 8.00001H5.33337C4.97975 8.00001 4.64061 8.14049 4.39056 8.39053C4.14052 8.64058 4.00004 8.97972 4.00004 9.33334V21.3333H4.44913ZM8.66671 21.3333C7.56214 21.3333 6.66671 22.2288 6.66671 23.3333C6.66671 24.4379 7.56214 25.3333 8.66671 25.3333C9.77128 25.3333 10.6667 24.4379 10.6667 23.3333C10.6667 22.2288 9.77128 21.3333 8.66671 21.3333ZM22 21.3333C20.8955 21.3333 20 22.2288 20 23.3333C20 24.4379 20.8955 25.3333 22 25.3333C23.1046 25.3333 24 24.4379 24 23.3333C24 22.2288 23.1046 21.3333 22 21.3333Z" fill="white"/>
</svg>
