<svg width="32" height="32" viewBox="0 0 32 32" fill="none" xmlns="http://www.w3.org/2000/svg">
<path d="M6.66667 17.3333L8.66667 11.3333H23.3333L25.3333 17.3333M23.3333 24C22.8029 24 22.2942 23.7893 21.9191 23.4142C21.544 23.0392 21.3333 22.5304 21.3333 22C21.3333 21.4696 21.544 20.9609 21.9191 20.5858C22.2942 20.2107 22.8029 20 23.3333 20C23.8638 20 24.3725 20.2107 24.7475 20.5858C25.1226 20.9609 25.3333 21.4696 25.3333 22C25.3333 22.5304 25.1226 23.0392 24.7475 23.4142C24.3725 23.7893 23.8638 24 23.3333 24ZM8.66667 24C8.13623 24 7.62753 23.7893 7.25245 23.4142C6.87738 23.0392 6.66667 22.5304 6.66667 22C6.66667 21.4696 6.87738 20.9609 7.25245 20.5858C7.62753 20.2107 8.13623 20 8.66667 20C9.1971 20 9.70581 20.2107 10.0809 20.5858C10.456 20.9609 10.6667 21.4696 10.6667 22C10.6667 22.5304 10.456 23.0392 10.0809 23.4142C9.70581 23.7893 9.1971 24 8.66667 24ZM25.2267 10.6667C24.96 9.89335 24.2133 9.33335 23.3333 9.33335H8.66667C7.78667 9.33335 7.04 9.89335 6.77333 10.6667L4 18.6667V29.3333C4 29.687 4.14048 30.0261 4.39052 30.2762C4.64057 30.5262 4.97971 30.6667 5.33333 30.6667H6.66667C7.02029 30.6667 7.35943 30.5262 7.60948 30.2762C7.85952 30.0261 8 29.687 8 29.3333V28H24V29.3333C24 29.687 24.1405 30.0261 24.3905 30.2762C24.6406 30.5262 24.9797 30.6667 25.3333 30.6667H26.6667C27.0203 30.6667 27.3594 30.5262 27.6095 30.2762C27.8595 30.0261 28 29.687 28 29.3333V18.6667M9.33333 6.66668C9.86377 6.66668 10.3725 6.45597 10.7475 6.08089C11.1226 5.70582 11.3333 5.19711 11.3333 4.66668C11.3333 3.33335 9.33333 1.06668 9.33333 1.06668C9.33333 1.06668 7.33333 3.33335 7.33333 4.66668C7.33333 5.19711 7.54405 5.70582 7.91912 6.08089C8.29419 6.45597 8.8029 6.66668 9.33333 6.66668ZM16 6.66668C16.5304 6.66668 17.0391 6.45597 17.4142 6.08089C17.7893 5.70582 18 5.19711 18 4.66668C18 3.33335 16 1.06668 16 1.06668C16 1.06668 14 3.33335 14 4.66668C14 5.19711 14.2107 5.70582 14.5858 6.08089C14.9609 6.45597 15.4696 6.66668 16 6.66668ZM22.6667 6.66668C23.1971 6.66668 23.7058 6.45597 24.0809 6.08089C24.456 5.70582 24.6667 5.19711 24.6667 4.66668C24.6667 3.33335 22.6667 1.06668 22.6667 1.06668C22.6667 1.06668 20.6667 3.33335 20.6667 4.66668C20.6667 5.19711 20.8774 5.70582 21.2525 6.08089C21.6275 6.45597 22.1362 6.66668 22.6667 6.66668Z" fill="white"/>
</svg>
