<svg width="20" height="20" viewBox="0 0 20 20" fill="none" xmlns="http://www.w3.org/2000/svg">
<path d="M18.3333 8.33332C18.3333 7.67028 18.0699 7.0344 17.6011 6.56555C17.1323 6.09671 16.4964 5.83332 15.8333 5.83332H13.9942C13.7114 4.83859 13.1008 3.96865 12.2613 3.36476C11.4218 2.76087 10.4028 2.45851 9.36984 2.50677C8.33685 2.55503 7.3505 2.95108 6.57098 3.63061C5.79146 4.31014 5.26456 5.23323 5.07582 6.24999M14.5833 17.5H7.49999C6.41821 17.4997 5.35782 17.1986 4.4373 16.6304C3.51679 16.0621 2.77242 15.2491 2.28738 14.2822C1.80234 13.3152 1.59574 12.2324 1.69065 11.1548C1.78557 10.0772 2.17826 9.04724 2.82486 8.17997C3.47146 7.3127 4.34649 6.64231 5.35216 6.24373C6.35783 5.84514 7.45453 5.73405 8.5197 5.92287C9.58487 6.1117 10.5766 6.593 11.3839 7.31299C12.1913 8.03298 12.7826 8.9633 13.0917 9.99999H14.5833C15.0758 9.99999 15.5634 10.097 16.0184 10.2854C16.4734 10.4739 16.8868 10.7501 17.235 11.0983C17.5832 11.4466 17.8594 11.86 18.0479 12.3149C18.2363 12.7699 18.3333 13.2575 18.3333 13.75C18.3333 14.2424 18.2363 14.7301 18.0479 15.1851C17.8594 15.64 17.5832 16.0534 17.235 16.4016C16.8868 16.7499 16.4734 17.0261 16.0184 17.2145C15.5634 17.403 15.0758 17.5 14.5833 17.5Z" stroke="white" stroke-width="1.5" stroke-linecap="round" stroke-linejoin="round"/>
</svg>
