<svg width="32" height="32" viewBox="0 0 32 32" fill="none" xmlns="http://www.w3.org/2000/svg">
<path d="M12 7.99999H18.6666M12 7.99999V11.3333H18.6666V7.99999M12 7.99999V5.99999C12 3.99999 14 2.66666 16 2.66666H23.3333C23.3333 2.66666 18.6666 3.99999 18.6666 6.66666V7.99999M8.66663 12.6667C8.66663 12.313 8.8071 11.9739 9.05715 11.7238C9.3072 11.4738 9.64634 11.3333 9.99996 11.3333H20.6666C21.0202 11.3333 21.3594 11.4738 21.6094 11.7238C21.8595 11.9739 22 12.313 22 12.6667V25.3333C22 25.3333 22 29.3333 18 29.3333H12.6666C8.66663 29.3333 8.66663 25.3333 8.66663 25.3333V12.6667Z" stroke="white" stroke-width="3" stroke-linecap="round" stroke-linejoin="round"/>
</svg>
