<svg width="20" height="20" viewBox="0 0 20 20" fill="none" xmlns="http://www.w3.org/2000/svg">
<path fill-rule="evenodd" clip-rule="evenodd" d="M2.59321 10C2.66156 10.1311 2.75181 10.2959 2.86453 10.4852C3.16786 10.9948 3.62871 11.6735 4.25651 12.3496C5.5126 13.7023 7.39013 15 10 15C12.6099 15 14.4874 13.7023 15.7435 12.3496C16.3713 11.6735 16.8322 10.9948 17.1355 10.4852C17.2482 10.2959 17.3385 10.1311 17.4068 10C17.3385 9.86896 17.2482 9.70416 17.1355 9.51479C16.8322 9.00519 16.3713 8.32648 15.7435 7.65039C14.4874 6.29767 12.6099 5.00001 10 5.00001C7.39013 5.00001 5.5126 6.29767 4.25651 7.65039C3.62871 8.32648 3.16786 9.00519 2.86453 9.51479C2.75181 9.70416 2.66156 9.86896 2.59321 10ZM18.3333 10C19.0993 9.67174 19.0992 9.67141 19.099 9.67104L19.0977 9.66814L19.0953 9.6624L19.0874 9.64466C19.081 9.6301 19.0719 9.61011 19.0604 9.58506C19.0372 9.53496 19.0038 9.46453 18.9599 9.37668C18.8721 9.20111 18.742 8.95518 18.5677 8.66232C18.2199 8.07816 17.6912 7.29854 16.9648 6.5163C15.5126 4.95235 13.2235 3.33334 10 3.33334C6.77656 3.33334 4.48743 4.95235 3.03518 6.5163C2.30882 7.29854 1.78008 8.07816 1.43237 8.66232C1.25805 8.95518 1.12793 9.20111 1.04014 9.37668C0.996214 9.46453 0.962793 9.53496 0.939653 9.58506C0.928079 9.61011 0.919068 9.6301 0.912592 9.64466L0.904771 9.6624L0.902278 9.66814L0.901384 9.67021L0.901025 9.67104C0.900871 9.67141 0.900725 9.67174 1.66668 10L0.901025 9.67104C0.811187 9.88067 0.810886 10.1187 0.900725 10.3283L1.66668 10C0.900725 10.3283 0.90057 10.3279 0.900725 10.3283L0.901384 10.3298L0.902278 10.3319L0.904771 10.3376L0.912592 10.3554C0.919068 10.3699 0.928079 10.3899 0.939653 10.415C0.962793 10.4651 0.996214 10.5355 1.04014 10.6233C1.12793 10.7989 1.25805 11.0448 1.43237 11.3377C1.78008 11.9219 2.30882 12.7015 3.03518 13.4837C4.48743 15.0477 6.77656 16.6667 10 16.6667C13.2235 16.6667 15.5126 15.0477 16.9648 13.4837C17.6912 12.7015 18.2199 11.9219 18.5677 11.3377C18.742 11.0448 18.8721 10.7989 18.9599 10.6233C19.0038 10.5355 19.0372 10.4651 19.0604 10.415C19.0719 10.3899 19.081 10.3699 19.0874 10.3554L19.0953 10.3376L19.0977 10.3319L19.099 10.329C19.0992 10.3286 19.0993 10.3283 18.3333 10ZM18.3333 10L19.099 10.329C19.1888 10.1194 19.1888 9.88067 19.099 9.67104L18.3333 10ZM10 8.33334C9.07954 8.33334 8.33335 9.07954 8.33335 10C8.33335 10.9205 9.07954 11.6667 10 11.6667C10.9205 11.6667 11.6667 10.9205 11.6667 10C11.6667 9.07954 10.9205 8.33334 10 8.33334ZM6.66668 10C6.66668 8.15906 8.15906 6.66668 10 6.66668C11.841 6.66668 13.3333 8.15906 13.3333 10C13.3333 11.841 11.841 13.3333 10 13.3333C8.15906 13.3333 6.66668 11.841 6.66668 10Z" fill="white"/>
</svg>
