<svg width="32" height="32" viewBox="0 0 32 32" fill="none" xmlns="http://www.w3.org/2000/svg">
<g clip-path="url(#clip0_74_884)">
<path fill-rule="evenodd" clip-rule="evenodd" d="M16.0006 4C16.1774 4 16.347 4.07024 16.472 4.19526C16.597 4.32029 16.6673 4.48986 16.6673 4.66667V10.3233C16.8793 10.5353 17.0739 10.846 17.2466 11.2347L19.6666 9.44133V7.55533C19.6666 7.46508 19.6849 7.37576 19.7204 7.2928C19.756 7.20983 19.808 7.13494 19.8733 7.07267L22.2066 4.85067C22.3346 4.72867 22.5059 4.66252 22.6826 4.66677C22.8594 4.67102 23.0273 4.74532 23.1493 4.87333C23.2713 5.00134 23.3374 5.17258 23.3332 5.34936C23.3289 5.52615 23.2546 5.694 23.1266 5.816L20.9999 7.84133V9.778C20.9999 9.88212 20.9754 9.98477 20.9285 10.0777C20.8816 10.1707 20.8136 10.2514 20.7299 10.3133L17.7299 12.536C17.7122 12.5493 17.6942 12.5613 17.6759 12.572C17.8806 13.462 17.9999 14.5253 17.9999 15.6667C17.9999 16.0956 17.9837 16.5111 17.9513 16.9133L21.9426 20.4427C22.0304 20.5203 22.0962 20.6198 22.1333 20.731C22.1704 20.8422 22.1775 20.9612 22.1539 21.076L21.6746 23.4093L23.6173 24.3233C23.6965 24.3606 23.7676 24.4132 23.8265 24.4779C23.8855 24.5427 23.9311 24.6185 23.9607 24.7009C23.9904 24.7833 24.0035 24.8707 23.9994 24.9582C23.9952 25.0456 23.9739 25.1314 23.9366 25.2107C23.8993 25.2899 23.8468 25.361 23.782 25.4199C23.7172 25.4789 23.6415 25.5245 23.5591 25.5541C23.4767 25.5838 23.3893 25.5969 23.3018 25.5928C23.2143 25.5886 23.1285 25.5673 23.0493 25.53L20.6319 24.392C20.4967 24.3282 20.3868 24.2209 20.32 24.0871C20.2531 23.9534 20.2332 23.8011 20.2633 23.6547L20.7699 21.186L17.7326 18.4993C17.6748 18.7802 17.6097 19.0447 17.5373 19.2927L18.9539 21.2127C19.0181 21.2997 19.06 21.401 19.0763 21.5078C19.0926 21.6147 19.0826 21.7239 19.0473 21.826L18.2093 24.262L19.9939 26.966C20.0907 27.1136 20.1251 27.2935 20.0895 27.4663C20.0538 27.6391 19.9511 27.7908 19.8039 27.888C19.6566 27.9853 19.4768 28.0201 19.3038 27.985C19.1309 27.9499 18.9789 27.8476 18.8813 27.7007L16.9159 24.7227C16.8597 24.6375 16.8238 24.5405 16.811 24.4393C16.7982 24.338 16.8088 24.2352 16.8419 24.1387L17.6733 21.7233L16.9193 20.7007C16.6439 21.1053 16.3313 21.3333 15.9999 21.3333C15.6686 21.3333 15.3559 21.1047 15.0806 20.7007L14.3273 21.7233L15.1579 24.1387C15.1911 24.2352 15.2017 24.338 15.1889 24.4393C15.1761 24.5405 15.1402 24.6375 15.0839 24.7227L13.1186 27.7007C13.0212 27.8483 12.8691 27.9512 12.6958 27.9867C12.5225 28.0222 12.3422 27.9874 12.1946 27.89C12.047 27.7926 11.9441 27.6405 11.9086 27.4672C11.8731 27.2939 11.9079 27.1136 12.0053 26.966L13.7906 24.262L12.9519 21.826C12.9167 21.7238 12.9069 21.6146 12.9232 21.5077C12.9396 21.4009 12.9817 21.2996 13.0459 21.2127L14.4626 19.2927C14.3897 19.0447 14.3246 18.7802 14.2673 18.4993L11.2293 21.186L11.7366 23.6547C11.7667 23.8011 11.7468 23.9534 11.6799 24.0871C11.613 24.2209 11.5032 24.3282 11.3679 24.392L8.95061 25.53C8.7906 25.6053 8.60722 25.614 8.44081 25.5541C8.2744 25.4942 8.1386 25.3707 8.06328 25.2107C7.98796 25.0507 7.97929 24.8673 8.03917 24.7009C8.09906 24.5345 8.2226 24.3987 8.38261 24.3233L10.3253 23.4093L9.84528 21.076C9.82179 20.9611 9.82903 20.8421 9.86625 20.7309C9.90347 20.6197 9.96937 20.5203 10.0573 20.4427L14.0486 16.9127C14.0162 16.4981 14 16.0825 13.9999 15.6667C13.9999 14.5247 14.1193 13.462 14.3239 12.572C14.3054 12.5609 14.2874 12.5489 14.2699 12.536L11.2699 10.3133C11.1863 10.2514 11.1183 10.1707 11.0714 10.0777C11.0245 9.98477 11 9.88212 10.9999 9.778V7.84133L8.87328 5.816C8.74527 5.694 8.67096 5.52615 8.66671 5.34936C8.66246 5.17258 8.72861 5.00134 8.85061 4.87333C8.97261 4.74532 9.14047 4.67102 9.31725 4.66677C9.49404 4.66252 9.66527 4.72867 9.79328 4.85067L12.1266 7.07267C12.1919 7.13494 12.2439 7.20983 12.2795 7.2928C12.315 7.37576 12.3333 7.46508 12.3333 7.55533V9.442L14.7533 11.2353C14.9266 10.8447 15.1219 10.534 15.3339 10.322V4.66667C15.3339 4.48986 15.4042 4.32029 15.5292 4.19526C15.6542 4.07024 15.8238 4 16.0006 4ZM8.58461 16.6667C6.61595 16.6667 5.85395 16.1607 5.58261 15.8587L5.54461 15.814L12.2239 14.9173C12.1281 15.086 12.0176 15.2459 11.8939 15.3953C11.3586 16.036 10.3939 16.6667 8.58461 16.6667ZM4.07195 14.6667C3.77195 15.778 4.25261 18 8.58528 18C11.8399 18 13.2606 16.2433 13.7653 14.71C13.9333 14.2033 13.9999 13.72 13.9999 13.3333L4.07195 14.6667ZM23.4153 16.6667C25.3839 16.6667 26.1459 16.1607 26.4173 15.8587C26.4306 15.844 26.4433 15.8291 26.4553 15.814L19.7759 14.9173C19.8684 15.0813 19.9784 15.2407 20.1059 15.3953C20.6413 16.036 21.6059 16.6667 23.4153 16.6667ZM27.9279 14.6667C28.2279 15.778 27.7473 18 23.4146 18C20.1599 18 18.7393 16.2433 18.2346 14.71C18.0858 14.266 18.0066 13.8016 17.9999 13.3333L27.9279 14.6667Z" fill="white"/>
</g>
<defs>
<clipPath id="clip0_74_884">
<rect width="32" height="32" fill="white"/>
</clipPath>
</defs>
</svg>
