<svg width="32" height="32" viewBox="0 0 32 32" fill="none" xmlns="http://www.w3.org/2000/svg">
<path fill-rule="evenodd" clip-rule="evenodd" d="M8.45838 8.59485L8.45549 8.5963L11.8592 15.4037C12.0185 15.7222 12.0437 16.0912 11.9293 16.4284C11.8149 16.7656 11.5703 17.043 11.2502 17.1989L9.75093 17.9286C9.195 18.207 8.58179 18.3519 7.95997 18.3519C7.33477 18.3519 6.71828 18.2054 6.15997 17.9241C6.13418 17.9111 6.10883 17.8972 6.08394 17.8826L5.90103 17.775C5.72357 17.6915 5.52973 17.6481 5.3333 17.6481C5.1249 17.6481 4.9194 17.6969 4.7333 17.7907L4.72959 17.7926L4.45549 17.9296L6.22326 21.4652L8.43856 21.8406C8.52586 21.8379 8.61391 21.8438 8.7015 21.8585C8.97849 21.9052 9.26313 21.8632 9.51483 21.7386L26.6262 13.2495C26.9921 13.061 27.2801 12.765 27.4607 12.4037L27.9745 11.3761C28.0108 11.3057 28.031 11.2281 28.0336 11.1489C28.0361 11.0697 28.0209 10.9909 27.9892 10.9183C27.9574 10.8457 27.9099 10.7811 27.8501 10.7292C27.7902 10.6772 27.7195 10.6393 27.6432 10.6181L27.6302 10.6144L26.3441 10.2432C25.8951 10.1199 25.4161 10.1676 25.0001 10.3773L24.9883 10.3833L19.4059 13.1278C19.4051 13.1281 19.4044 13.1285 19.4036 13.1289C18.7364 13.4594 17.9901 13.5971 17.2489 13.5265C16.509 13.4561 15.8035 13.1809 15.2114 12.7319L9.84851 8.72978C9.65144 8.58059 9.4168 8.48909 9.17076 8.46555C8.9259 8.44212 8.67935 8.48688 8.45838 8.59485ZM8.58362 24.5293C8.47563 24.5377 8.36603 24.5331 8.25716 24.5146L5.11049 23.9813C4.69118 23.9102 4.33093 23.6434 4.14073 23.263L1.47406 17.9296C1.14474 17.271 1.41171 16.4701 2.07035 16.1408L3.5333 15.4093C3.53398 15.409 3.53467 15.4086 3.53535 15.4083C4.09313 15.1276 4.70887 14.9814 5.3333 14.9814C5.95849 14.9814 6.57498 15.128 7.1333 15.4093C7.15909 15.4223 7.18444 15.4361 7.20933 15.4508L7.39223 15.5584C7.5697 15.6419 7.76354 15.6853 7.95997 15.6853C8.16837 15.6853 8.37386 15.6364 8.55997 15.5426L8.57639 15.5344L8.87138 15.3909L5.47406 8.5963C5.31592 8.28001 5.2899 7.91385 5.40172 7.57838C5.51355 7.2429 5.75406 6.96559 6.07035 6.80745L7.27806 6.20359C7.94341 5.87628 8.68666 5.74038 9.42478 5.81101C10.1612 5.88148 10.8637 6.15481 11.454 6.60056L16.8207 10.6056C17.0185 10.756 17.2543 10.8483 17.5017 10.8719C17.7491 10.8954 17.9981 10.8494 18.2207 10.7389L18.225 10.7368L23.8063 7.9928C24.8149 7.48637 25.976 7.37316 27.0636 7.67535L27.0764 7.67892L28.3641 8.0507C28.8194 8.1783 29.2408 8.40522 29.5979 8.71516C29.957 9.02677 30.2421 9.41448 30.4325 9.8501C30.623 10.2857 30.714 10.7583 30.6989 11.2335C30.6839 11.7057 30.5645 12.1687 30.3494 12.5892L29.8459 13.5963C29.4141 14.4597 28.7176 15.1758 27.833 15.6275L27.8192 15.6345L10.6992 24.1278C10.0423 24.4531 9.30988 24.5912 8.58362 24.5293ZM1.3333 29.3333C1.3333 28.597 1.93025 28 2.66663 28H29.3333C30.0697 28 30.6666 28.597 30.6666 29.3333C30.6666 30.0697 30.0697 30.6667 29.3333 30.6667H2.66663C1.93025 30.6667 1.3333 30.0697 1.3333 29.3333Z" fill="white"/>
</svg>
