<svg width="32" height="32" viewBox="0 0 32 32" fill="none" xmlns="http://www.w3.org/2000/svg">
<path fill-rule="evenodd" clip-rule="evenodd" d="M8.5693 2.80757C9.99183 2.52461 11.4663 2.66983 12.8063 3.22488C14.0932 3.75791 15.2005 4.64592 16 5.78362C16.7994 4.64592 17.9068 3.75791 19.1936 3.22488C20.5336 2.66983 22.0081 2.52461 23.4306 2.80757C24.8532 3.09053 26.1598 3.78896 27.1854 4.81454C28.211 5.84013 28.9094 7.1468 29.1924 8.56933C29.4753 9.99186 29.3301 11.4663 28.7751 12.8063C28.242 14.0932 27.354 15.2005 26.2163 16C27.354 16.7995 28.242 17.9068 28.7751 19.1936C29.3301 20.5336 29.4753 22.0081 29.1924 23.4307C28.9094 24.8532 28.211 26.1599 27.1854 27.1854C26.1598 28.211 24.8532 28.9095 23.4306 29.1924C22.0081 29.4754 20.5336 29.3301 19.1936 28.7751C17.9068 28.2421 16.7994 27.3541 16 26.2164C15.2005 27.3541 14.0932 28.2421 12.8063 28.7751C11.4663 29.3301 9.99183 29.4754 8.5693 29.1924C7.14677 28.9095 5.8401 28.211 4.81451 27.1854C3.78893 26.1599 3.0905 24.8532 2.80754 23.4307C2.52458 22.0081 2.6698 20.5336 3.22485 19.1936C3.75788 17.9068 4.64589 16.7995 5.78359 16C4.64589 15.2005 3.75788 14.0932 3.22485 12.8063C2.6698 11.4663 2.52458 9.99186 2.80754 8.56933C3.0905 7.1468 3.78893 5.84013 4.81451 4.81454C5.8401 3.78896 7.14677 3.09053 8.5693 2.80757ZM9.99996 14.6667C9.07698 14.6667 8.17473 14.393 7.4073 13.8802C6.63987 13.3674 6.04173 12.6386 5.68852 11.7858C5.33532 10.9331 5.2429 9.99482 5.42296 9.08957C5.60303 8.18433 6.04749 7.35281 6.70013 6.70016C7.35278 6.04752 8.1843 5.60306 9.08954 5.423C9.99479 5.24293 10.9331 5.33535 11.7858 5.68856C12.6385 6.04176 13.3674 6.6399 13.8802 7.40733C14.3929 8.17476 14.6666 9.07701 14.6666 9.99999V10.8347C14.1773 10.9606 13.7151 11.1543 13.2907 11.4051L11.6094 9.72385C11.0887 9.20315 10.2445 9.20315 9.72382 9.72385C9.20312 10.2445 9.20312 11.0888 9.72382 11.6095L11.4051 13.2907C11.1543 13.7151 10.9606 14.1773 10.8347 14.6667H9.99996ZM10.8347 17.3333H9.99996C9.07698 17.3333 8.17473 17.607 7.4073 18.1198C6.63987 18.6326 6.04173 19.3614 5.68852 20.2141C5.33532 21.0669 5.2429 22.0052 5.42296 22.9104C5.60303 23.8157 6.04749 24.6472 6.70013 25.2998C7.35278 25.9525 8.1843 26.3969 9.08954 26.577C9.99478 26.7571 10.9331 26.6646 11.7858 26.3114C12.6385 25.9582 13.3674 25.3601 13.8802 24.5927C14.3929 23.8252 14.6666 22.923 14.6666 22V21.1653C14.1773 21.0393 13.7151 20.8457 13.2907 20.5949L11.6094 22.2761C11.0887 22.7968 10.2445 22.7968 9.72382 22.2761C9.20312 21.7554 9.20312 20.9112 9.72382 20.3905L11.4051 18.7093C11.1543 18.2849 10.9606 17.8227 10.8347 17.3333ZM17.3333 21.1653V22C17.3333 22.923 17.607 23.8252 18.1198 24.5927C18.6325 25.3601 19.3614 25.9582 20.2141 26.3114C21.0668 26.6646 22.0051 26.7571 22.9104 26.577C23.8156 26.3969 24.6471 25.9525 25.2998 25.2998C25.9524 24.6472 26.3969 23.8157 26.577 22.9104C26.757 22.0052 26.6646 21.0669 26.3114 20.2141C25.9582 19.3614 25.3601 18.6326 24.5926 18.1198C23.8252 17.607 22.9229 17.3333 22 17.3333H21.1653C21.0393 17.8227 20.8457 18.2849 20.5949 18.7093L22.2761 20.3905C22.7968 20.9112 22.7968 21.7554 22.2761 22.2761C21.7554 22.7968 20.9112 22.7968 20.3905 22.2761L18.7092 20.5949C18.2848 20.8457 17.8227 21.0393 17.3333 21.1653ZM21.1653 14.6667H22C22.9229 14.6667 23.8252 14.393 24.5926 13.8802C25.3601 13.3674 25.9582 12.6386 26.3114 11.7858C26.6646 10.9331 26.757 9.99481 26.577 9.08957C26.3969 8.18433 25.9524 7.35281 25.2998 6.70016C24.6471 6.04752 23.8156 5.60306 22.9104 5.423C22.0051 5.24293 21.0668 5.33535 20.2141 5.68856C19.3614 6.04176 18.6325 6.6399 18.1198 7.40733C17.607 8.17476 17.3333 9.07701 17.3333 9.99999V10.8347C17.8227 10.9606 18.2848 11.1543 18.7092 11.4051L20.3905 9.72385C20.9112 9.20315 21.7554 9.20315 22.2761 9.72385C22.7968 10.2445 22.7968 11.0888 22.2761 11.6095L20.5949 13.2907C20.8457 13.7151 21.0393 14.1773 21.1653 14.6667ZM16 13.3333C14.5272 13.3333 13.3333 14.5272 13.3333 16C13.3333 17.4728 14.5272 18.6667 16 18.6667C17.4727 18.6667 18.6666 17.4728 18.6666 16C18.6666 14.5272 17.4727 13.3333 16 13.3333Z" fill="white"/>
</svg>
