<svg width="20" height="20" viewBox="0 0 20 20" fill="none" xmlns="http://www.w3.org/2000/svg">
<path d="M5.41669 15.8333C5.12502 15.8333 4.87835 15.7325 4.67669 15.5308C4.47502 15.3292 4.37446 15.0828 4.37502 14.7917C4.37558 14.5006 4.47641 14.2539 4.67752 14.0517C4.87863 13.8495 5.12502 13.7489 5.41669 13.75C5.70835 13.7511 5.95502 13.852 6.15669 14.0525C6.35835 14.2531 6.45891 14.4995 6.45835 14.7917C6.4578 15.0839 6.35696 15.3306 6.15585 15.5317C5.95474 15.7328 5.70835 15.8333 5.41669 15.8333ZM7.91669 18.3333C7.62502 18.3333 7.37835 18.2325 7.17669 18.0308C6.97502 17.8292 6.87446 17.5828 6.87502 17.2917C6.87558 17.0006 6.97641 16.7539 7.17752 16.5517C7.37863 16.3495 7.62502 16.2489 7.91669 16.25C8.20835 16.2511 8.45502 16.352 8.65669 16.5525C8.85835 16.7531 8.95891 16.9995 8.95835 17.2917C8.9578 17.5839 8.85696 17.8306 8.65585 18.0317C8.45474 18.2328 8.20835 18.3333 7.91669 18.3333ZM10.4167 15.8333C10.125 15.8333 9.87835 15.7325 9.67669 15.5308C9.47502 15.3292 9.37446 15.0828 9.37502 14.7917C9.37558 14.5006 9.47641 14.2539 9.67752 14.0517C9.87863 13.8495 10.125 13.7489 10.4167 13.75C10.7084 13.7511 10.955 13.852 11.1567 14.0525C11.3584 14.2531 11.4589 14.4995 11.4584 14.7917C11.4578 15.0839 11.357 15.3306 11.1559 15.5317C10.9547 15.7328 10.7084 15.8333 10.4167 15.8333ZM15.4167 15.8333C15.125 15.8333 14.8784 15.7325 14.6767 15.5308C14.475 15.3292 14.3745 15.0828 14.375 14.7917C14.3756 14.5006 14.4764 14.2539 14.6775 14.0517C14.8786 13.8495 15.125 13.7489 15.4167 13.75C15.7084 13.7511 15.955 13.852 16.1567 14.0525C16.3584 14.2531 16.4589 14.4995 16.4584 14.7917C16.4578 15.0839 16.357 15.3306 16.1559 15.5317C15.9547 15.7328 15.7084 15.8333 15.4167 15.8333ZM12.9167 18.3333C12.625 18.3333 12.3784 18.2325 12.1767 18.0308C11.975 17.8292 11.8745 17.5828 11.875 17.2917C11.8756 17.0006 11.9764 16.7539 12.1775 16.5517C12.3786 16.3495 12.625 16.2489 12.9167 16.25C13.2084 16.2511 13.455 16.352 13.6567 16.5525C13.8584 16.7531 13.9589 16.9995 13.9584 17.2917C13.9578 17.5839 13.857 17.8306 13.6559 18.0317C13.4547 18.2328 13.2084 18.3333 12.9167 18.3333ZM6.25002 12.5C4.98613 12.5 3.90641 12.0522 3.01085 11.1567C2.1153 10.2611 1.66724 9.18112 1.66669 7.91668C1.66669 6.7639 2.04863 5.75696 2.81252 4.89584C3.57641 4.03473 4.52085 3.52779 5.64585 3.37501C6.0903 2.58334 6.69808 1.96168 7.46919 1.51001C8.2403 1.05834 9.08391 0.832789 10 0.833345C11.25 0.833345 12.337 1.23279 13.2609 2.03168C14.1847 2.83057 14.7436 3.82696 14.9375 5.02084C15.8959 5.10418 16.7014 5.50001 17.3542 6.20834C18.007 6.91668 18.3334 7.7639 18.3334 8.75001C18.3334 9.79168 17.9689 10.6772 17.24 11.4067C16.5111 12.1361 15.6256 12.5006 14.5834 12.5H6.25002ZM6.25002 10.8333H14.5834C15.1667 10.8333 15.6597 10.632 16.0625 10.2292C16.4653 9.8264 16.6667 9.33334 16.6667 8.75001C16.6667 8.16668 16.4653 7.67362 16.0625 7.27085C15.6597 6.86807 15.1667 6.66668 14.5834 6.66668H13.3334V5.83334C13.3334 4.91668 13.007 4.13196 12.3542 3.47918C11.7014 2.8264 10.9167 2.50001 10 2.50001C9.33335 2.50001 8.72585 2.68057 8.17752 3.04168C7.62919 3.40279 7.21585 3.8889 6.93752 4.50001L6.72919 5.00001H6.20835C5.41669 5.02779 4.73974 5.32307 4.17752 5.88585C3.6153 6.44862 3.33391 7.12557 3.33335 7.91668C3.33335 8.72223 3.61808 9.40973 4.18752 9.97918C4.75696 10.5486 5.44446 10.8333 6.25002 10.8333Z" fill="white"/>
</svg>
