<svg width="32" height="32" viewBox="0 0 32 32" fill="none" xmlns="http://www.w3.org/2000/svg">
<g clip-path="url(#clip0_74_878)">
<path d="M20.3333 8.66666C21.129 8.66666 21.8921 8.35059 22.4547 7.78798C23.0173 7.22537 23.3333 6.46231 23.3333 5.66666C23.3333 4.87101 23.0173 4.10795 22.4547 3.54534C21.8921 2.98273 21.129 2.66666 20.3333 2.66666C19.5377 2.66666 18.7746 2.98273 18.212 3.54534C17.6494 4.10795 17.3333 4.87101 17.3333 5.66666C17.3333 6.46231 17.6494 7.22537 18.212 7.78798C18.7746 8.35059 19.5377 8.66666 20.3333 8.66666ZM14.3067 11.5213C13.4753 11.728 12.908 12.0387 12.45 12.424C11.7633 13.0027 11.2087 13.8373 10.4593 15.1493C10.2839 15.4564 9.9936 15.6811 9.6524 15.7741C9.31121 15.8671 8.94705 15.8208 8.64001 15.6453C8.33298 15.4698 8.10823 15.1796 8.01522 14.8384C7.9222 14.4972 7.96853 14.133 8.14401 13.826C8.89001 12.5213 9.64401 11.3007 10.7327 10.3847C11.8687 9.42732 13.2593 8.88599 15.1347 8.67732C15.9187 8.59066 16.7813 8.60799 17.59 8.96866C18.4387 9.34799 19.0587 10.0273 19.4813 10.9353C20.0507 12.1573 20.474 12.8847 20.8127 13.3067C20.976 13.5087 21.09 13.6027 21.1547 13.6447C21.206 13.678 21.228 13.6807 21.236 13.682C21.294 13.6887 21.4827 13.682 22.0347 13.4373C22.2753 13.3307 22.538 13.2027 22.8593 13.046L22.936 13.0087C23.329 12.8148 23.7255 12.6281 24.1253 12.4487C24.4481 12.3069 24.8139 12.2988 25.1427 12.4261C25.4715 12.5534 25.7364 12.8057 25.8797 13.1279C26.0229 13.45 26.0327 13.8157 25.9069 14.1451C25.7812 14.4744 25.5301 14.7406 25.2087 14.8853C24.8381 15.0516 24.4708 15.2247 24.1067 15.4047L24.0193 15.4473C23.712 15.5973 23.4027 15.7487 23.1127 15.8767C22.5127 16.142 21.746 16.43 20.9147 16.3293C20.0373 16.2227 19.3613 15.7273 18.8047 15.0627L16.9827 18.578L19.5027 21.8567C19.6527 22.0527 19.7453 22.286 19.7713 22.5313L20.326 27.862C20.3471 28.0376 20.3331 28.2157 20.2847 28.3859C20.2364 28.556 20.1546 28.7148 20.0443 28.8531C19.9339 28.9913 19.7971 29.1062 19.6419 29.1911C19.4867 29.276 19.3162 29.3291 19.1402 29.3474C18.9643 29.3658 18.7865 29.3489 18.6171 29.2978C18.4478 29.2467 18.2903 29.1624 18.1538 29.0498C18.0173 28.9373 17.9046 28.7987 17.8223 28.6421C17.7399 28.4856 17.6895 28.3142 17.674 28.138L17.158 23.1827L15.6273 21.1907L15.614 21.2153L15.558 21.1007L12.73 17.4207C12.591 17.2398 12.5007 17.0263 12.4678 16.8005C12.4349 16.5748 12.4604 16.3444 12.542 16.1313L14.3067 11.5213Z" fill="white"/>
<path d="M12.288 19.338L11.3067 21.978L7.44002 21.6713C7.26422 21.655 7.08693 21.6738 6.91844 21.7265C6.74994 21.7793 6.5936 21.8649 6.45849 21.9786C6.32337 22.0922 6.21217 22.2316 6.13134 22.3885C6.05051 22.5455 6.00166 22.717 5.98762 22.893C5.97358 23.069 5.99464 23.246 6.04957 23.4138C6.10449 23.5816 6.1922 23.7368 6.30759 23.8704C6.42299 24.004 6.56377 24.1134 6.72178 24.1922C6.87978 24.271 7.05186 24.3176 7.22802 24.3293L12.1 24.716C12.3892 24.739 12.6779 24.6671 12.9225 24.5112C13.1671 24.3553 13.3542 24.1238 13.4554 23.852L14.2054 21.8333L12.288 19.338Z" fill="white"/>
</g>
<defs>
<clipPath id="clip0_74_878">
<rect width="32" height="32" fill="white"/>
</clipPath>
</defs>
</svg>
