<svg width="20" height="20" viewBox="0 0 20 20" fill="none" xmlns="http://www.w3.org/2000/svg">
<g clip-path="url(#clip0_73_328)">
<path fill-rule="evenodd" clip-rule="evenodd" d="M10 0.833344C10.4603 0.833344 10.8334 1.20644 10.8334 1.66668V3.33334C10.8334 3.79358 10.4603 4.16668 10 4.16668C9.5398 4.16668 9.16671 3.79358 9.16671 3.33334V1.66668C9.16671 1.20644 9.5398 0.833344 10 0.833344ZM3.51906 3.51913C3.8445 3.1937 4.37214 3.1937 4.69757 3.51913L5.87257 4.69413C6.19801 5.01957 6.19801 5.54721 5.87257 5.87264C5.54714 6.19808 5.0195 6.19808 4.69406 5.87264L3.51906 4.69764C3.19362 4.37221 3.19362 3.84457 3.51906 3.51913ZM16.4809 3.51913C16.8063 3.84457 16.8063 4.37221 16.4809 4.69764L15.3059 5.87264C14.9805 6.19808 14.4528 6.19808 14.1274 5.87264C13.8019 5.54721 13.8019 5.01957 14.1274 4.69413L15.3024 3.51913C15.6278 3.1937 16.1555 3.1937 16.4809 3.51913ZM10 7.50001C8.61933 7.50001 7.50004 8.6193 7.50004 10C7.50004 11.3807 8.61933 12.5 10 12.5C11.3808 12.5 12.5 11.3807 12.5 10C12.5 8.6193 11.3808 7.50001 10 7.50001ZM5.83337 10C5.83337 7.69882 7.69885 5.83334 10 5.83334C12.3012 5.83334 14.1667 7.69882 14.1667 10C14.1667 12.3012 12.3012 14.1667 10 14.1667C7.69885 14.1667 5.83337 12.3012 5.83337 10ZM0.833374 10C0.833374 9.53977 1.20647 9.16668 1.66671 9.16668H3.33337C3.79361 9.16668 4.16671 9.53977 4.16671 10C4.16671 10.4602 3.79361 10.8333 3.33337 10.8333H1.66671C1.20647 10.8333 0.833374 10.4602 0.833374 10ZM15.8334 10C15.8334 9.53977 16.2065 9.16668 16.6667 9.16668H18.3334C18.7936 9.16668 19.1667 9.53977 19.1667 10C19.1667 10.4602 18.7936 10.8333 18.3334 10.8333H16.6667C16.2065 10.8333 15.8334 10.4602 15.8334 10ZM5.87257 14.1274C6.19801 14.4529 6.19801 14.9805 5.87257 15.306L4.69757 16.481C4.37214 16.8064 3.8445 16.8064 3.51906 16.481C3.19362 16.1555 3.19362 15.6279 3.51906 15.3024L4.69406 14.1274C5.0195 13.802 5.54714 13.802 5.87257 14.1274ZM14.1274 14.1274C14.4528 13.802 14.9805 13.802 15.3059 14.1274L16.4809 15.3024C16.8063 15.6279 16.8063 16.1555 16.4809 16.481C16.1555 16.8064 15.6278 16.8064 15.3024 16.481L14.1274 15.306C13.8019 14.9805 13.8019 14.4529 14.1274 14.1274ZM10 15.8333C10.4603 15.8333 10.8334 16.2064 10.8334 16.6667V18.3333C10.8334 18.7936 10.4603 19.1667 10 19.1667C9.5398 19.1667 9.16671 18.7936 9.16671 18.3333V16.6667C9.16671 16.2064 9.5398 15.8333 10 15.8333Z" fill="white"/>
</g>
<defs>
<clipPath id="clip0_73_328">
<rect width="20" height="20" fill="white"/>
</clipPath>
</defs>
</svg>
