<svg width="24" height="24" viewBox="0 0 24 24" fill="none" xmlns="http://www.w3.org/2000/svg">
<path d="M9.3125 5.8125C9.866 5.24325 11.3375 3 12.125 3M12.125 3C12.9125 3 14.384 5.24325 14.9375 5.8125M12.125 3V9.75M19.2834 10.4655L17.6938 12.0563M2 17.625H4.25M4.96663 10.4655L6.55625 12.0563M22.25 17.625H20M22.25 21H2M16.625 17.625C16.625 16.4315 16.1509 15.2869 15.307 14.443C14.4631 13.5991 13.3185 13.125 12.125 13.125C10.9315 13.125 9.78693 13.5991 8.94302 14.443C8.09911 15.2869 7.625 16.4315 7.625 17.625" stroke="white" stroke-width="1.5" stroke-linecap="round" stroke-linejoin="round"/>
</svg>
