<svg width="20" height="20" viewBox="0 0 20 20" fill="none" xmlns="http://www.w3.org/2000/svg">
<path fill-rule="evenodd" clip-rule="evenodd" d="M10 2.50001C9.77903 2.50001 9.56707 2.58781 9.41079 2.74409C9.25451 2.90037 9.16671 3.11233 9.16671 3.33334V12.1167C9.16671 12.4144 9.00788 12.6895 8.75004 12.8384C8.27344 13.1135 7.90095 13.5383 7.69034 14.0467C7.47974 14.5552 7.44279 15.1189 7.58523 15.6505C7.72767 16.1821 8.04153 16.6518 8.47814 16.9868C8.91475 17.3218 9.44971 17.5034 10 17.5034C10.5504 17.5034 11.0853 17.3218 11.5219 16.9868C11.9586 16.6518 12.2724 16.1821 12.4149 15.6505C12.5573 15.1189 12.5203 14.5552 12.3097 14.0467C12.0991 13.5383 11.7266 13.1135 11.25 12.8384C10.9922 12.6895 10.8334 12.4144 10.8334 12.1167V3.33334C10.8334 3.11233 10.7456 2.90037 10.5893 2.74409C10.433 2.58781 10.2211 2.50001 10 2.50001ZM8.23228 1.56558C8.70112 1.09674 9.337 0.833344 10 0.833344C10.6631 0.833344 11.299 1.09674 11.7678 1.56558C12.2367 2.03442 12.5 2.6703 12.5 3.33334V11.6701C13.0952 12.1164 13.5625 12.716 13.8495 13.4089C14.2005 14.2563 14.2621 15.1959 14.0247 16.0818C13.7873 16.9678 13.2642 17.7507 12.5365 18.3091C11.8089 18.8674 10.9173 19.1701 10 19.1701C9.08282 19.1701 8.19122 18.8674 7.46354 18.3091C6.73585 17.7507 6.21275 16.9678 5.97535 16.0818C5.73796 15.1959 5.79954 14.2563 6.15054 13.4089C6.43754 12.716 6.90492 12.1164 7.50004 11.6701V3.33334C7.50004 2.6703 7.76344 2.03442 8.23228 1.56558Z" fill="white"/>
</svg>
