<svg width="20" height="20" viewBox="0 0 20 20" fill="none" xmlns="http://www.w3.org/2000/svg">
<path d="M8.72 13.1233L10.5833 11.05C10.6886 10.9318 10.8347 10.858 10.9923 10.8434C11.1498 10.8287 11.307 10.8744 11.4322 10.9712C11.5574 11.0679 11.6413 11.2085 11.6668 11.3647C11.6924 11.5208 11.6578 11.6809 11.57 11.8125L11.5133 11.8858L10.5875 12.9158H12.4842C12.5947 12.9157 12.7032 12.9449 12.7988 13.0004C12.8943 13.0559 12.9734 13.1358 13.0281 13.2318C13.0827 13.3279 13.1109 13.4367 13.1098 13.5472C13.1086 13.6577 13.0782 13.7659 13.0217 13.8608L12.9733 13.9308L10.2967 17.29C10.1985 17.4138 10.0571 17.4957 9.90092 17.5195C9.74473 17.5432 9.58536 17.5069 9.45485 17.4179C9.32434 17.3289 9.23238 17.1938 9.19747 17.0397C9.16256 16.8856 9.18728 16.7241 9.26667 16.5875L9.31917 16.5117L11.1875 14.1658H9.185C9.07169 14.1659 8.9605 14.1351 8.86332 14.0768C8.76614 14.0185 8.68664 13.9349 8.63331 13.835C8.57998 13.735 8.55483 13.6224 8.56056 13.5092C8.56629 13.3961 8.60268 13.2866 8.66583 13.1925L8.72 13.1233ZM10.835 4.17332C13.475 4.17332 14.9733 5.92166 15.1908 8.03249H15.2575C15.6611 8.03194 16.0608 8.1109 16.4338 8.26485C16.8068 8.41881 17.1459 8.64474 17.4316 8.92975C17.7173 9.21476 17.9441 9.55326 18.0989 9.92592C18.2538 10.2986 18.3337 10.6981 18.3342 11.1017C18.3336 11.5051 18.2536 11.9046 18.0987 12.2771C17.9438 12.6497 17.717 12.9881 17.4313 13.273C17.1456 13.5579 16.8066 13.7838 16.4336 13.9377C16.0606 14.0916 15.661 14.1705 15.2575 14.17L13.7675 14.1708C13.893 13.9865 13.96 13.7686 13.9597 13.5456C13.9594 13.3226 13.8918 13.1048 13.7658 12.9208L15.2108 12.9225C16.2617 12.9225 17.1133 12.0875 17.1133 11.0583C17.1133 10.0292 16.2617 9.19499 15.2108 9.19499H14.6358C14.3308 9.19499 14.065 8.96166 14.065 8.66332C14.065 6.75916 12.5608 5.42166 10.835 5.42166C9.10833 5.42166 7.60417 6.78332 7.60417 8.66332C7.60417 8.96082 7.33833 9.19499 7.03417 9.19499H6.45917C5.4075 9.19499 4.55583 10.0283 4.55583 11.0583C4.55583 12.0875 5.4075 12.9225 6.45833 12.9225L7.92667 12.9217C7.80067 13.1057 7.7331 13.3234 7.7328 13.5464C7.73251 13.7694 7.79949 13.9873 7.925 14.1717L6.41167 14.17C6.00818 14.1705 5.60854 14.0916 5.23556 13.9377C4.86257 13.7838 4.52356 13.5579 4.23786 13.273C3.95217 12.9881 3.72539 12.6497 3.57047 12.2771C3.41556 11.9046 3.33555 11.5051 3.335 11.1017C3.33544 10.6981 3.41537 10.2986 3.57024 9.92592C3.7251 9.55326 3.95186 9.21476 4.23757 8.92975C4.52327 8.64474 4.86233 8.41881 5.23536 8.26485C5.6084 8.1109 6.00811 8.03194 6.41167 8.03249H6.47833C6.6975 5.90749 8.195 4.17332 10.835 4.17332ZM8.33333 1.66666C9.68083 1.66666 10.875 2.34582 11.5833 3.38499C11.3349 3.35624 11.0851 3.3415 10.835 3.34082C10.5056 3.34082 10.1892 3.36443 9.88583 3.41166C9.51702 3.15025 9.08814 2.98626 8.639 2.93491C8.18987 2.88356 7.73504 2.94651 7.31674 3.11792C6.89843 3.28934 6.53022 3.56365 6.24626 3.9154C5.96231 4.26715 5.77183 4.68494 5.6925 5.12999L5.63167 5.47499C5.59776 5.66806 5.49687 5.84299 5.34674 5.96904C5.19661 6.09508 5.00686 6.16417 4.81083 6.16416H4.4025C4.10887 6.16385 3.82174 6.2506 3.5774 6.41343C3.33306 6.57628 3.14247 6.8079 3.02974 7.07903C2.91701 7.35016 2.88719 7.64862 2.94404 7.93669C3.0009 8.22477 3.14188 8.48952 3.34917 8.69749C3.08667 9.03082 2.87833 9.40999 2.73667 9.81999C2.29364 9.4802 1.96522 9.01297 1.79552 8.48106C1.62583 7.94914 1.62299 7.37804 1.78739 6.84447C1.95179 6.31089 2.27555 5.84042 2.71518 5.49624C3.1548 5.15207 3.68923 4.95069 4.24667 4.91916L4.46083 4.91416C4.62197 4.00417 5.09838 3.17997 5.80649 2.58615C6.5146 1.99232 7.40919 1.66679 8.33333 1.66666Z" fill="white"/>
</svg>
