<svg width="32" height="32" viewBox="0 0 32 32" fill="none" xmlns="http://www.w3.org/2000/svg">
<path fill-rule="evenodd" clip-rule="evenodd" d="M16 1.33334C16.7364 1.33334 17.3334 1.9303 17.3334 2.66668V2.77653C20.4827 3.06237 23.4702 4.35515 25.8425 6.48148C28.5476 8.90602 30.2626 12.2437 30.6588 15.8546C30.7001 16.2313 30.5792 16.6078 30.3263 16.89C30.0734 17.1721 29.7123 17.3334 29.3334 17.3334H17.3334V26.6667C17.3334 27.0203 17.4739 27.3594 17.7239 27.6095C17.974 27.8595 18.3131 28 18.6667 28C19.0203 28 19.3595 27.8595 19.6095 27.6095C19.8596 27.3594 20 27.0203 20 26.6667C20 25.9303 20.597 25.3333 21.3334 25.3333C22.0698 25.3333 22.6667 25.9303 22.6667 26.6667C22.6667 27.7275 22.2453 28.745 21.4951 29.4951C20.745 30.2452 19.7276 30.6667 18.6667 30.6667C17.6058 30.6667 16.5884 30.2452 15.8383 29.4951C15.0881 28.745 14.6667 27.7275 14.6667 26.6667V17.3334H2.66671C2.28778 17.3334 1.92674 17.1721 1.67383 16.89C1.42091 16.6078 1.30001 16.2313 1.34133 15.8546C1.73748 12.2437 3.45249 8.90602 6.15757 6.48148C8.52993 4.35515 11.5174 3.06237 14.6667 2.77653V2.66668C14.6667 1.9303 15.2637 1.33334 16 1.33334ZM16.0092 14.6667C16.0061 14.6667 16.0031 14.6667 16 14.6667C15.997 14.6667 15.994 14.6667 15.9909 14.6667H4.24807C4.81489 12.2843 6.09617 10.1175 7.9374 8.46726C10.1533 6.48115 13.0243 5.38282 16 5.38282C18.9758 5.38282 21.8468 6.48115 24.0627 8.46726C25.9039 10.1175 27.1852 12.2843 27.752 14.6667H16.0092Z" fill="white"/>
</svg>
