<svg width="20" height="20" viewBox="0 0 20 20" fill="none" xmlns="http://www.w3.org/2000/svg">
<path d="M9.6853 1.00006L8.84964 1.936C8.84964 1.936 7.42344 3.55162 5.9861 5.64634C4.54876 7.74107 3 10.2481 3 12.6548C3 14.4278 3.70434 16.1282 4.95808 17.382C6.21182 18.6357 7.91225 19.3401 9.6853 19.3401C11.4583 19.3401 13.1588 18.6357 14.4125 17.382C15.6663 16.1282 16.3706 14.4278 16.3706 12.6548C16.3706 10.2481 14.8218 7.74107 13.3845 5.64634C11.9472 3.55162 10.521 1.936 10.521 1.936L9.6853 1.00006ZM9.6853 4.48756C10.1756 5.06695 10.6212 5.54606 11.5572 6.90541C12.9054 8.86643 14.1422 11.3623 14.1422 12.6548C14.1422 15.1283 12.1589 17.1116 9.6853 17.1116C7.21174 17.1116 5.22843 15.1283 5.22843 12.6548C5.22843 11.3623 6.46521 8.86643 7.81341 6.90541C8.74936 5.54606 9.19504 5.06695 9.6853 4.48756Z" fill="white"/>
</svg>
