<svg width="20" height="20" viewBox="0 0 20 20" fill="none" xmlns="http://www.w3.org/2000/svg">
<path d="M15.625 7.20835C15.25 7.58335 14.8194 7.86807 14.3333 8.06251C13.8472 8.25696 13.3611 8.35418 12.875 8.35418C12.3889 8.35418 11.9097 8.26057 11.4375 8.07335C10.9653 7.88612 10.5417 7.59779 10.1667 7.20835L8.60417 5.64585C8.39583 5.43751 8.15972 5.2814 7.89583 5.17751C7.63194 5.07362 7.36111 5.0214 7.08333 5.02085C6.80556 5.02029 6.53472 5.07251 6.27083 5.17751C6.00694 5.28251 5.77083 5.43862 5.5625 5.64585L4 7.20835L2.8125 6.02085L4.375 4.45835C4.75 4.08335 5.17361 3.80223 5.64583 3.61501C6.11806 3.42779 6.59722 3.3339 7.08333 3.33335C7.56944 3.33279 8.04528 3.42668 8.51083 3.61501C8.97639 3.80335 9.39639 4.08446 9.77083 4.45835L11.3333 6.02085C11.5556 6.24307 11.7986 6.4064 12.0625 6.51085C12.3264 6.61529 12.5972 6.66723 12.875 6.66668C13.1528 6.66612 13.4272 6.61418 13.6983 6.51085C13.9694 6.40751 14.2158 6.24418 14.4375 6.02085L16 4.45835L17.1875 5.64585L15.625 7.20835ZM15.625 11.375C15.25 11.75 14.8231 12.0314 14.3442 12.2192C13.8653 12.407 13.3822 12.5006 12.895 12.5C12.4078 12.4995 11.9253 12.4058 11.4475 12.2192C10.9697 12.0325 10.5428 11.7511 10.1667 11.375L8.60417 9.81251C8.39583 9.60418 8.15972 9.44807 7.89583 9.34418C7.63194 9.24029 7.36111 9.18807 7.08333 9.18751C6.80556 9.18696 6.53472 9.23918 6.27083 9.34418C6.00694 9.44918 5.77083 9.60529 5.5625 9.81251L4 11.375L2.8125 10.2083L4.375 8.62501C4.75 8.25001 5.17361 7.9689 5.64583 7.78168C6.11806 7.59446 6.59722 7.50057 7.08333 7.50001C7.56944 7.49946 8.04528 7.59335 8.51083 7.78168C8.97639 7.97001 9.39639 8.25112 9.77083 8.62501L11.3333 10.1875C11.5556 10.4097 11.7986 10.5731 12.0625 10.6775C12.3264 10.782 12.5972 10.8339 12.875 10.8333C13.1528 10.8328 13.4272 10.7808 13.6983 10.6775C13.9694 10.5742 14.2158 10.4108 14.4375 10.1875L16 8.62501L17.1875 9.81251L15.625 11.375ZM15.6042 15.5417C15.2292 15.9167 14.8056 16.1981 14.3333 16.3858C13.8611 16.5736 13.3819 16.6672 12.8958 16.6667C12.4097 16.6661 11.9272 16.5725 11.4483 16.3858C10.9694 16.1992 10.5422 15.9178 10.1667 15.5417L8.58333 13.9792C8.375 13.7708 8.13889 13.6147 7.875 13.5108C7.61111 13.407 7.34028 13.3547 7.0625 13.3542C6.78472 13.3536 6.51389 13.4058 6.25 13.5108C5.98611 13.6158 5.75 13.772 5.54167 13.9792L3.97917 15.5417L2.8125 14.375L4.375 12.7917C4.75 12.4167 5.17361 12.1356 5.64583 11.9483C6.11806 11.7611 6.59722 11.6672 7.08333 11.6667C7.56944 11.6661 8.04528 11.76 8.51083 11.9483C8.97639 12.1367 9.39639 12.4178 9.77083 12.7917L11.3333 14.3542C11.5556 14.5764 11.8022 14.7397 12.0733 14.8442C12.3444 14.9486 12.6186 15.0006 12.8958 15C13.1731 14.9995 13.4439 14.9475 13.7083 14.8442C13.9728 14.7408 14.2158 14.5775 14.4375 14.3542L16 12.7917L17.1667 13.9792L15.6042 15.5417Z" fill="white"/>
</svg>
