<svg width="20" height="20" viewBox="0 0 20 20" fill="none" xmlns="http://www.w3.org/2000/svg">
<path fill-rule="evenodd" clip-rule="evenodd" d="M9.34951 4.18227C9.21418 4.15589 9.07441 4.16351 8.94274 4.20445C8.81107 4.24538 8.69161 4.31834 8.59508 4.4168C8.27287 4.74543 7.74526 4.75063 7.41663 4.42842C7.088 4.10621 7.08279 3.5786 7.405 3.24997C7.6946 2.9546 8.05297 2.7357 8.44798 2.61291C8.84299 2.49011 9.26229 2.46725 9.66831 2.54637C10.0743 2.6255 10.4544 2.80413 10.7744 3.06627C11.0944 3.3284 11.3443 3.66584 11.5018 4.04834C11.6593 4.43084 11.7194 4.84644 11.6768 5.25789C11.6342 5.66935 11.4901 6.06379 11.2575 6.40587C11.0249 6.74794 10.7111 7.02696 10.3442 7.21791C9.97911 7.40788 9.57284 7.50477 9.16142 7.50005H1.66671C1.20647 7.50005 0.833374 7.12695 0.833374 6.66672C0.833374 6.20648 1.20647 5.83338 1.66671 5.83338H9.17841C9.31629 5.83532 9.45248 5.8031 9.5748 5.73945C9.69711 5.6758 9.80172 5.58279 9.87925 5.46876C9.95678 5.35474 10.0048 5.22326 10.019 5.08611C10.0332 4.94896 10.0132 4.81042 9.96068 4.68292C9.90818 4.55542 9.82487 4.44294 9.7182 4.35556C9.61154 4.26819 9.48486 4.20864 9.34951 4.18227ZM16.4482 6.69329C16.2493 6.65215 16.0433 6.66012 15.8481 6.71651C15.6529 6.77291 15.4744 6.87603 15.3281 7.01695C14.9965 7.33618 14.469 7.3262 14.1498 6.99467C13.8305 6.66314 13.8405 6.1356 14.172 5.81637C14.5135 5.48756 14.93 5.24694 15.3854 5.11534C15.8409 4.98375 16.3215 4.96515 16.7858 5.06116C17.25 5.15717 17.6838 5.36489 18.0497 5.66633C18.4156 5.96778 18.7025 6.35386 18.8855 6.79115C19.0686 7.22844 19.1423 7.70377 19.1003 8.17596C19.0582 8.64816 18.9017 9.10299 18.6443 9.50108C18.3869 9.89917 18.0364 10.2285 17.623 10.4606C17.2096 10.6927 16.7459 10.8205 16.272 10.833C16.2647 10.8332 16.2574 10.8333 16.25 10.8333H1.66671C1.20647 10.8333 0.833374 10.4602 0.833374 10C0.833374 9.53976 1.20647 9.16666 1.66671 9.16666H16.2376C16.4374 9.15986 16.6327 9.10524 16.807 9.00734C16.9842 8.90787 17.1344 8.76672 17.2447 8.59611C17.3551 8.4255 17.4221 8.23058 17.4401 8.02821C17.4582 7.82584 17.4266 7.62213 17.3481 7.43472C17.2697 7.2473 17.1467 7.08184 16.9899 6.95265C16.8331 6.82346 16.6472 6.73444 16.4482 6.69329ZM11.6614 12.5C12.0728 12.4952 12.4791 12.5921 12.8442 12.7821C13.2111 12.9731 13.5249 13.2521 13.7575 13.5942C13.9901 13.9362 14.1342 14.3307 14.1768 14.7421C14.2194 15.1536 14.1593 15.5692 14.0018 15.9517C13.8443 16.3342 13.5944 16.6716 13.2744 16.9338C12.9544 17.1959 12.5743 17.3745 12.1683 17.4536C11.7623 17.5328 11.343 17.5099 10.948 17.3871C10.553 17.2643 10.1946 17.0454 9.905 16.7501C9.58279 16.4214 9.58799 15.8938 9.91663 15.5716C10.2453 15.2494 10.7729 15.2546 11.0951 15.5832C11.1916 15.6817 11.3111 15.7546 11.4427 15.7956C11.5744 15.8365 11.7142 15.8441 11.8495 15.8178C11.9849 15.7914 12.1115 15.7318 12.2182 15.6445C12.3249 15.5571 12.4082 15.4446 12.4607 15.3171C12.5132 15.1896 12.5332 15.0511 12.519 14.9139C12.5048 14.7768 12.4568 14.6453 12.3793 14.5313C12.3017 14.4172 12.1971 14.3242 12.0748 14.2606C11.9525 14.1969 11.8163 14.1646 11.6784 14.1666L11.6667 14.1667L1.66671 14.1666C1.20647 14.1666 0.833374 13.7935 0.833374 13.3333C0.833374 12.8731 1.20647 12.5 1.66671 12.5H11.6614Z" fill="white"/>
</svg>
